<?xml version="1.0" standalone="no"?>
<!DOCTYPE svg PUBLIC "-//W3C//DTD SVG 20010904//EN"
 "http://www.w3.org/TR/2001/REC-SVG-20010904/DTD/svg10.dtd">
<svg version="1.0" xmlns="http://www.w3.org/2000/svg"
 width="260.000000pt" height="260.000000pt" viewBox="0 0 260.000000 260.000000"
 preserveAspectRatio="xMidYMid meet">
<metadata>
Created by potrace 1.11, written by Peter Selinger 2001-2013
</metadata>
<g transform="translate(0.000000,260.000000) scale(0.100000,-0.100000)"
fill="#000000" stroke="none">
<path d="M985 2106 c-69 -30 -155 -162 -203 -312 -51 -157 -54 -329 -8 -429
l26 -57 39 31 40 32 -25 53 c-34 75 -47 157 -40 257 17 253 173 481 238 349
23 -45 24 -195 3 -335 -32 -210 -124 -535 -152 -535 -34 0 -202 -64 -295 -113
-298 -154 -494 -434 -420 -600 42 -94 147 -112 279 -47 94 46 254 207 349 350
67 102 204 361 204 386 0 22 73 25 482 22 l397 -3 -55 -113 c-45 -94 -67 -125
-127 -186 -163 -164 -340 -196 -568 -102 -12 5 -20 -2 -32 -31 -8 -21 -13 -41
-11 -45 9 -15 154 -30 235 -25 260 19 470 166 600 421 l44 86 131 0 c111 0
133 3 138 16 3 9 6 18 6 20 0 2 -58 4 -128 4 l-129 0 63 188 c34 103 86 279
114 391 28 113 53 207 56 210 2 3 53 -3 112 -12 59 -10 113 -17 120 -17 8 0
12 16 12 49 0 58 17 52 -220 77 -225 25 -550 25 -655 0 -151 -35 -248 -97
-286 -181 -38 -82 -19 -157 55 -222 54 -47 111 -70 200 -79 l62 -6 34 38 34
39 -90 8 c-226 19 -320 92 -270 211 34 81 145 125 336 133 110 5 331 -6 489
-24 l54 -6 -56 -29 c-41 -20 -57 -34 -57 -48 0 -34 -116 -479 -157 -600 l-38
-115 -315 -7 c-173 -4 -370 -8 -438 -10 -67 -2 -122 -3 -122 -2 0 0 11 34 25
75 31 90 69 238 86 339 20 114 18 342 -4 412 -28 93 -87 127 -162 94z m-85
-992 c0 -13 -75 -183 -121 -277 -137 -274 -304 -447 -432 -447 -35 0 -49 6
-73 31 -27 28 -29 36 -29 103 0 65 4 81 42 158 89 179 261 319 503 409 72 27
110 35 110 23z"/>
</g>
</svg>
